<mxfile host="app.diagrams.net" agent="Mozilla/5.0 (Windows NT 10.0; Win64; x64) AppleWebKit/537.36 (KHTML, like Gecko) Chrome/133.0.0.0 Safari/537.36 Edg/133.0.0.0" version="26.0.11">
  <diagram name="Page-1" id="FUj5JuBEpWsL8a2AdBEq">
    <mxGraphModel dx="192" dy="578" grid="1" gridSize="10" guides="1" tooltips="1" connect="1" arrows="1" fold="1" page="1" pageScale="1" pageWidth="850" pageHeight="1100" math="0" shadow="0">
      <root>
        <mxCell id="0" />
        <mxCell id="1" parent="0" />
        <mxCell id="6EVmLK6l6n9z2KSdd183-135" value="เริ่มต้น" style="whiteSpace=wrap;strokeWidth=2;fillColor=none;" parent="1" vertex="1">
          <mxGeometry x="1253.5" y="341" width="101" height="49" as="geometry" />
        </mxCell>
        <mxCell id="6EVmLK6l6n9z2KSdd183-148" value="สิ้นสุด" style="whiteSpace=wrap;strokeWidth=2;fillColor=none;" parent="1" vertex="1">
          <mxGeometry x="1254.5" y="709" width="99" height="50" as="geometry" />
        </mxCell>
        <mxCell id="6EVmLK6l6n9z2KSdd183-149" value="" style="curved=1;startArrow=none;endArrow=block;exitX=0.5;exitY=1;entryX=0.5;entryY=0;rounded=0;entryDx=0;entryDy=0;exitDx=0;exitDy=0;" parent="1" source="6EVmLK6l6n9z2KSdd183-135" target="6EVmLK6l6n9z2KSdd183-172" edge="1">
          <mxGeometry relative="1" as="geometry">
            <Array as="points" />
            <mxPoint x="1304" y="280" as="targetPoint" />
          </mxGeometry>
        </mxCell>
        <mxCell id="6EVmLK6l6n9z2KSdd183-172" value="รองรับ NDEF" style="rhombus;strokeWidth=2;whiteSpace=wrap;fontStyle=0;fillColor=none;" parent="1" vertex="1">
          <mxGeometry x="1253.5" y="430" width="101" height="101" as="geometry" />
        </mxCell>
        <mxCell id="6EVmLK6l6n9z2KSdd183-189" value="" style="ellipse;whiteSpace=wrap;html=1;aspect=fixed;fillColor=none;" parent="1" vertex="1">
          <mxGeometry x="1294" y="659" width="20" height="20" as="geometry" />
        </mxCell>
        <mxCell id="6EVmLK6l6n9z2KSdd183-191" value="" style="endArrow=classic;html=1;rounded=0;entryX=0.5;entryY=0;entryDx=0;entryDy=0;exitX=0.5;exitY=1;exitDx=0;exitDy=0;" parent="1" source="6EVmLK6l6n9z2KSdd183-189" target="6EVmLK6l6n9z2KSdd183-148" edge="1">
          <mxGeometry width="50" height="50" relative="1" as="geometry">
            <mxPoint x="1244" y="970" as="sourcePoint" />
            <mxPoint x="1294" y="920" as="targetPoint" />
          </mxGeometry>
        </mxCell>
        <mxCell id="6EVmLK6l6n9z2KSdd183-223" value="" style="curved=1;startArrow=none;endArrow=block;exitX=0.5;exitY=1;entryX=0.5;entryY=0;rounded=0;entryDx=0;entryDy=0;exitDx=0;exitDy=0;" parent="1" source="6EVmLK6l6n9z2KSdd183-172" target="6EVmLK6l6n9z2KSdd183-228" edge="1">
          <mxGeometry relative="1" as="geometry">
            <Array as="points" />
            <mxPoint x="1304" y="531" as="sourcePoint" />
            <mxPoint x="1304" y="575" as="targetPoint" />
          </mxGeometry>
        </mxCell>
        <mxCell id="6EVmLK6l6n9z2KSdd183-224" value="ใช่" style="edgeLabel;html=1;align=center;verticalAlign=middle;resizable=0;points=[];" parent="6EVmLK6l6n9z2KSdd183-223" vertex="1" connectable="0">
          <mxGeometry x="-0.1882" relative="1" as="geometry">
            <mxPoint as="offset" />
          </mxGeometry>
        </mxCell>
        <mxCell id="6EVmLK6l6n9z2KSdd183-228" value="เขียนข้อมูลที่การ์ด" style="whiteSpace=wrap;strokeWidth=2;fillColor=none;" parent="1" vertex="1">
          <mxGeometry x="1254.5" y="576" width="99" height="50" as="geometry" />
        </mxCell>
        <mxCell id="6EVmLK6l6n9z2KSdd183-229" value="" style="endArrow=classic;html=1;rounded=0;entryX=0.5;entryY=0;entryDx=0;entryDy=0;exitX=0.5;exitY=1;exitDx=0;exitDy=0;" parent="1" source="6EVmLK6l6n9z2KSdd183-228" target="6EVmLK6l6n9z2KSdd183-189" edge="1">
          <mxGeometry width="50" height="50" relative="1" as="geometry">
            <mxPoint x="1225" y="896" as="sourcePoint" />
            <mxPoint x="1275" y="846" as="targetPoint" />
          </mxGeometry>
        </mxCell>
        <mxCell id="6EVmLK6l6n9z2KSdd183-250" value="" style="endArrow=classic;html=1;rounded=0;exitX=0;exitY=0.5;exitDx=0;exitDy=0;entryX=0;entryY=0.5;entryDx=0;entryDy=0;edgeStyle=orthogonalEdgeStyle;" parent="1" source="6EVmLK6l6n9z2KSdd183-172" target="6EVmLK6l6n9z2KSdd183-189" edge="1">
          <mxGeometry width="50" height="50" relative="1" as="geometry">
            <mxPoint x="1254.5" y="480" as="sourcePoint" />
            <mxPoint x="1175.4999999999998" y="615.5" as="targetPoint" />
            <Array as="points">
              <mxPoint x="1195" y="481" />
              <mxPoint x="1195" y="669" />
            </Array>
          </mxGeometry>
        </mxCell>
        <mxCell id="6EVmLK6l6n9z2KSdd183-255" value="ไม่" style="edgeLabel;html=1;align=center;verticalAlign=middle;resizable=0;points=[];" parent="6EVmLK6l6n9z2KSdd183-250" vertex="1" connectable="0">
          <mxGeometry x="-0.8499" y="-1" relative="1" as="geometry">
            <mxPoint as="offset" />
          </mxGeometry>
        </mxCell>
      </root>
    </mxGraphModel>
  </diagram>
</mxfile>
